<?xml version="1.0" encoding="iso-8859-1"?>
<!-- Generator: Adobe Illustrator 19.0.0, SVG Export Plug-In . SVG Version: 6.00 Build 0)  -->
<svg xmlns="http://www.w3.org/2000/svg" xmlns:xlink="http://www.w3.org/1999/xlink" version="1.1" id="Capa_1" x="0px" y="0px" viewBox="0 0 480.062 480.062" style="enable-background:new 0 0 480.062 480.062;" xml:space="preserve" width="512px" height="512px">
<g>
	<g>
		<path d="M352.054,248.031c-57.438,0-104,46.562-104,104s46.562,104,104,104s104-46.562,104-104    C455.988,294.621,409.464,248.097,352.054,248.031z M352.054,440.031c-48.601,0-88-39.399-88-88c0-48.601,39.399-88,88-88    c48.601,0,88,39.399,88,88C439.997,400.608,400.631,439.974,352.054,440.031z" fill="#FFFFFF"/>
	</g>
</g>
<g>
	<g>
		<path d="M400.054,320.031c0-13.255-10.745-24-24-24h-8v-16h-16v16h-8v-16h-16v16h-24v16h16v80h-16v16h24v16h16v-16h8v16h16v-16h8    c13.255,0,24-10.745,24-24v-16c-0.021-5.923-2.245-11.627-6.24-16c3.995-4.373,6.219-10.077,6.24-16V320.031z M384.054,384.031    c0,4.418-3.582,8-8,8h-40v-32h40c4.418,0,8,3.582,8,8V384.031z M384.054,336.031c0,4.418-3.582,8-8,8h-40v-32h40    c4.418,0,8,3.582,8,8V336.031z" fill="#FFFFFF"/>
	</g>
</g>
<g>
	<g>
		<path d="M384.278,47.808c-13.317-0.062-24.162,10.684-24.223,24c-0.008,1.775,0.18,3.546,0.56,5.279l-65.6,40.32    c-4.221-3.457-9.504-5.355-14.96-5.376c-13.255,0-24,10.745-24,24c0.027,4.052,1.093,8.03,3.096,11.552l-50.136,62.216    c-12.244-4.984-26.21,0.902-31.194,13.146c-1.174,2.885-1.774,5.971-1.766,9.086c0,0.352,0.088,0.68,0.104,1.032l-62.232,23.104    c-8.643-9.95-23.716-11.01-33.666-2.367c-8.518,7.399-10.69,19.754-5.206,29.615l-41.832,46.456    c-12.239-5.09-26.286,0.706-31.376,12.944s0.706,26.286,12.944,31.376c2.936,1.221,6.084,1.846,9.264,1.84    c13.255,0,24-10.745,24-24c-0.028-3.986-1.06-7.901-3-11.384l41.832-46.456c12.216,5.085,26.243-0.695,31.328-12.912    c1.22-2.93,1.845-6.074,1.84-9.248c0-0.352-0.088-0.68-0.104-1.032l62.232-23.104c8.646,9.947,23.719,11.002,33.666,2.356    c8.567-7.446,10.703-19.896,5.11-29.772l50.136-62.224c2.844,1.167,5.887,1.77,8.96,1.776c13.206,0.049,23.951-10.618,24-23.824    c0.006-1.759-0.181-3.514-0.56-5.232l65.6-40.32c4.221,3.457,9.504,5.355,14.96,5.376c13.317,0.062,24.162-10.683,24.223-24    C408.339,58.715,397.594,47.869,384.278,47.808z M24.054,360.031c-4.418,0-8-3.582-8-8s3.582-8,8-8    c1.959,0.022,3.84,0.768,5.28,2.096l0.08,0.048c1.667,1.492,2.626,3.619,2.64,5.856C32.054,356.449,28.472,360.031,24.054,360.031    z M96.054,280.031c-1.959-0.022-3.84-0.768-5.28-2.096l-0.064-0.04c-1.676-1.49-2.642-3.621-2.656-5.864c0-4.418,3.582-8,8-8    c3.203,0.003,6.096,1.917,7.352,4.864c0.427,0.99,0.648,2.057,0.648,3.136C104.054,276.449,100.472,280.031,96.054,280.031z     M200.054,240.031c-4.418,0-8-3.582-8-8s3.582-8,8-8s8,3.582,8,8S204.472,240.031,200.054,240.031z M280.054,144.031    c-4.418,0-8-3.582-8-8s3.582-8,8-8s8,3.582,8,8S284.472,144.031,280.054,144.031z M384.054,80.031c-4.418,0-8-3.582-8-8    s3.582-8,8-8s8,3.582,8,8S388.472,80.031,384.054,80.031z" fill="#FFFFFF"/>
	</g>
</g>
<g>
	<g>
		<path d="M464.054,290.199v-82.168h8c4.418,0,8-3.582,8-8s-3.582-8-8-8h-8v-48h8c4.418,0,8-3.582,8-8s-3.582-8-8-8h-8v-48h8    c4.418,0,8-3.582,8-8s-3.582-8-8-8h-8v-40h8c4.418,0,8-3.582,8-8s-3.582-8-8-8h-8c0-4.418-3.582-8-8-8s-8,3.582-8,8v259.624    c-46.565-53.072-127.337-58.347-180.409-11.782c-51.45,45.142-58.217,122.797-15.351,176.158H8.054c-4.418,0-8,3.582-8,8    s3.582,8,8,8h259.624c52.961,46.692,133.745,41.609,180.436-11.351C483.862,396.133,490.243,337.486,464.054,290.199z     M352.054,464.031c-61.856,0-112-50.144-112-112s50.144-112,112-112s112,50.144,112,112    C463.988,413.86,413.883,463.965,352.054,464.031z" fill="#FFFFFF"/>
	</g>
</g>
<g>
	<g>
		<path d="M40.054,16.031h-16c-4.418,0-8,3.582-8,8s3.582,8,8,8h16c4.418,0,8-3.582,8-8S44.472,16.031,40.054,16.031z" fill="#FFFFFF"/>
	</g>
</g>
<g>
	<g>
		<path d="M176.054,16.031h-104c-4.418,0-8,3.582-8,8s3.582,8,8,8h104c4.418,0,8-3.582,8-8S180.472,16.031,176.054,16.031z" fill="#FFFFFF"/>
	</g>
</g>
<g>
	<g>
		<path d="M176.054,48.031h-152c-4.418,0-8,3.582-8,8s3.582,8,8,8h152c4.418,0,8-3.582,8-8S180.472,48.031,176.054,48.031z" fill="#FFFFFF"/>
	</g>
</g>
<g>
	<g>
		<path d="M176.054,112.031h-152c-4.418,0-8,3.582-8,8s3.582,8,8,8h152c4.418,0,8-3.582,8-8S180.472,112.031,176.054,112.031z" fill="#FFFFFF"/>
	</g>
</g>
<g>
	<g>
		<path d="M56.054,80.031h-32c-4.418,0-8,3.582-8,8s3.582,8,8,8h32c4.418,0,8-3.582,8-8S60.472,80.031,56.054,80.031z" fill="#FFFFFF"/>
	</g>
</g>
<g>
	<g>
		<path d="M176.054,80.031h-88c-4.418,0-8,3.582-8,8s3.582,8,8,8h88c4.418,0,8-3.582,8-8S180.472,80.031,176.054,80.031z" fill="#FFFFFF"/>
	</g>
</g>
<g>
	<g>
		<path d="M32.054,464.031h-16c-4.418,0-8,3.582-8,8s3.582,8,8,8h16c4.418,0,8-3.582,8-8S36.472,464.031,32.054,464.031z" fill="#FFFFFF"/>
	</g>
</g>
<g>
	<g>
		<path d="M104.054,464.031h-16c-4.418,0-8,3.582-8,8s3.582,8,8,8h16c4.418,0,8-3.582,8-8S108.472,464.031,104.054,464.031z" fill="#FFFFFF"/>
	</g>
</g>
<g>
	<g>
		<path d="M176.054,464.031h-16c-4.418,0-8,3.582-8,8s3.582,8,8,8h16c4.418,0,8-3.582,8-8S180.472,464.031,176.054,464.031z" fill="#FFFFFF"/>
	</g>
</g>
<g>
	<g>
		<path d="M248.054,464.031h-16c-4.418,0-8,3.582-8,8s3.582,8,8,8h16c4.418,0,8-3.582,8-8S252.472,464.031,248.054,464.031z" fill="#FFFFFF"/>
	</g>
</g>
<g>
</g>
<g>
</g>
<g>
</g>
<g>
</g>
<g>
</g>
<g>
</g>
<g>
</g>
<g>
</g>
<g>
</g>
<g>
</g>
<g>
</g>
<g>
</g>
<g>
</g>
<g>
</g>
<g>
</g>
</svg>
