<svg xmlns="http://www.w3.org/2000/svg" xmlns:xlink="http://www.w3.org/1999/xlink" version="1.1" id="Capa_1" x="0px" y="0px" viewBox="0 0 781 465.1" style="enable-background:new 0 0 781 465.1;" xml:space="preserve">
<style type="text/css">
	.st0{opacity:0.47;fill:#E9EBF4;enable-background:new    ;}
	.st1{opacity:0.5;fill:#E0E3EF;enable-background:new    ;}
	.st2{fill:#DFE2EC;}
	.st3{fill:#FFFFFF;}
	.st4{fill:#585A8C;}
	.st5{fill:#EFC465;}
	.st6{opacity:0.3;fill:#20223D;enable-background:new    ;}
	.st7{fill:#20223D;}
	.st8{fill:#515151;}
	.st9{fill:#4F5167;}
	.st10{opacity:0.4;fill:#3D3E4E;enable-background:new    ;}
	.st11{fill:#797A8B;}
	.st12{fill:#4C4E64;}
	.st13{opacity:0.4;fill:#30313D;enable-background:new    ;}
	.st14{fill:#DFE1EB;}
</style>
<path class="st0" d="M766.8,463.9c0-55.8-10.8-108.9-30.2-156.8c7-16,11-33.9,11-52.8c0-67.2-49.6-121.6-110.8-121.6  c-11.5,0-22.5,1.9-32.9,5.5C549.3,100,484.7,78,415.3,78c-8.6,0-17.2,0.3-25.7,1c-15.2-12.5-34-20-54.4-20  c-38.6,0-71.5,26.6-84.6,63.9c-26.7,15.6-51.3,34.8-73.3,57c-7.2-1.8-14.6-2.8-22.3-2.8c-55.4,0-100.3,49.3-100.3,110.2  c0,26.5,8.5,50.8,22.7,69.9c-8.9,33.9-13.6,69.7-13.6,106.7L766.8,463.9L766.8,463.9z"/>
<g id="Capa_1_1_">
</g>
<path class="st1" d="M190.5,109.8c0,8.8-7.2,16.1-16.1,16.1c-8.9,0-16.1-7.2-16.1-16.1c0-8.8,7.2-16.1,16.1-16.1  C183.3,93.7,190.5,100.9,190.5,109.8z"/>
<circle class="st2" cx="258.4" cy="41.9" r="16.1"/>
<path class="st1" d="M51.7,108.3c0,4.8-3.8,8.6-8.6,8.6s-8.6-3.8-8.6-8.6s3.8-8.6,8.6-8.6C47.8,99.7,51.7,103.6,51.7,108.3z"/>
<ellipse class="st2" cx="98.6" cy="49.3" rx="36.3" ry="36.3"/>
<path class="st2" d="M108.3,370.8c0,4.2-3.4,7.6-7.6,7.6s-7.6-3.4-7.6-7.6s3.4-7.6,7.6-7.6C104.9,363.3,108.3,366.7,108.3,370.8z"/>
<ellipse class="st2" cx="30.1" cy="334.9" rx="24.6" ry="24.6"/>
<path class="st2" d="M226.6,227.5l-15.5-8.9v-17.8c0-1.3-1-2.4-2.4-2.4H29c-1.3,0-2.4,1-2.4,2.4v56.4c0,1.3,1,2.4,2.4,2.4h179.9  c1.3,0,2.4-1,2.4-2.4v-17.8l15.5-8.9C227.6,229.5,227.6,228,226.6,227.5z"/>
<path class="st3" d="M161.3,248.1h36.1c0.7,0,1.2-0.5,1.2-1.2v-36.1c0-0.7-0.5-1.2-1.2-1.2h-36.1c-0.7,0-1.2,0.5-1.2,1.2v36.1  C160,247.5,160.7,248.1,161.3,248.1z"/>
<path class="st3" d="M47.5,219.9h95.1c2.1,0,3.7-1.5,3.7-3.7l0,0c0-2.1-1.5-3.7-3.7-3.7H47.5c-2.1,0-3.7,1.5-3.7,3.7l0,0  C43.9,218.2,45.6,219.9,47.5,219.9z"/>
<path class="st3" d="M47.5,234h95.1c2.1,0,3.7-1.5,3.7-3.7l0,0c0-2.1-1.5-3.7-3.7-3.7H47.5c-2.1,0-3.7,1.5-3.7,3.7l0,0  C43.9,232.5,45.6,234,47.5,234z"/>
<path class="st3" d="M79.4,248.5h63.3c2.1,0,3.7-1.5,3.7-3.7l0,0c0-2.1-1.5-3.7-3.7-3.7H79.4c-2.1,0-3.7,1.5-3.7,3.7l0,0  C75.7,246.8,77.3,248.5,79.4,248.5z"/>
<path id="XMLID_515_" class="st2" d="M446.3,54.8v70.9c0,1.3-1.1,2.5-2.5,2.5h-14.9v12.2v16.1c0,1.2-1.5,1.8-2.4,0.8l-30.1-29.1H325  c-1.3,0-2.5-1.1-2.5-2.5V55c0-1.3,1.1-2.5,2.5-2.5h118.8C445.2,52.4,446.3,53.6,446.3,54.8z"/>
<g>
	<path id="XMLID_509_" class="st3" d="M433.4,78.1h-97.3c-1.7,0-3.2-1.3-3.2-3.2l0,0c0-1.7,1.3-3.2,3.2-3.2h97.3   c1.7,0,3.2,1.3,3.2,3.2l0,0C436.6,76.8,435.2,78.1,433.4,78.1z"/>
	<path id="XMLID_508_" class="st3" d="M433.4,93.8h-97.3c-1.7,0-3.2-1.3-3.2-3.2l0,0c0-1.7,1.3-3.2,3.2-3.2h97.3   c1.7,0,3.2,1.3,3.2,3.2l0,0C436.6,92.5,435.2,93.8,433.4,93.8z"/>
	<path id="XMLID_507_" class="st3" d="M433.4,109.6h-77c-1.7,0-3.2-1.3-3.2-3.2l0,0c0-1.7,1.3-3.2,3.2-3.2h77.1   c1.7,0,3.2,1.3,3.2,3.2l0,0C436.6,108.2,435.2,109.6,433.4,109.6z"/>
</g>
<polygon class="st4" points="461.3,287.2 461.3,338.9 486.2,463 486.2,463 515.1,351 534.3,261.5 525.2,254.5 "/>
<path class="st4" d="M461.3,269.5L422,285.6c-14.8,6.1-24.5,20.5-24.5,36.4l-13,142.5l263.4,1.2v-49.1c0-37.7-10.2-74.7-29.6-107.1  l-12.4-20.8c-7.9-13.2-21.4-21.9-36.7-23.8l-34.8-1.5l-9-7L461.3,269.5z"/>
<path class="st5" d="M521.3,256.3l-60.2,12.3l-2.6,1.1l0.3,2.1c0.7,1.4,1.4,2.9,2.2,4.2l9.6,15.9c3.6,6,10,9.6,16.9,9.6l0,0  c6.8,0,13.2-3.5,16.8-9.3l10.4-16.7c3.1-5,5.2-10.5,6.1-16.2L521.3,256.3z"/>
<path class="st6" d="M522.3,255.7l-54.4,11.1l-2.3,1l0.3,1.9c0.6,1.3,1.3,2.6,2,3.8l8.6,14.4c3.2,5.4,9,8.7,15.3,8.7l0,0  c6.2,0,11.9-3.2,15.2-8.4l9.4-15c2.8-4.5,4.7-9.4,5.5-14.6L522.3,255.7z"/>
<g>
	<path class="st7" d="M540.4,208c-1,11.9-1.5,25.9-13.1,32.7c-0.9,0.5-1.9,1-2.9,1.2c-0.8,0.2-1.7,0.2-2.6,0.1   c-3.5-0.2-6.9-1.2-10.1-2.8c-1.1-0.6-2.2-1.2-3.4-1.5c-3.9-0.8-7.1,2.9-10.4,5.1c-6.2,4.2-14.5,3.6-21.8,1.7   c-4.1-1.1-8.8-3.3-9.5-7.6c-0.3-2.1,0.5-4.4-0.4-6.4c-0.7-1.6-2.3-2.6-3.6-3.6c-3.1-2.5-2.8-7.3-2.9-11c-0.1-3-0.1-5.9-0.2-8.9   c0-1.5-0.1-3-0.4-4.4c-0.4-1.8-1.1-3.4-1.3-5.2c-0.2-2.2,0.9-2.9,1.6-4.6c0.6-1.5,0.3-3.1,1.2-4.6c1-1.8,2.4-3.2,3.6-4.8   c1.6-2.2,2.6-4.6,4-6.9c1.5-2.2,3.5-4.2,6.1-4.7c1-0.2,2-0.1,3-0.3c2.9-0.6,5.1-3,7.4-4.9c2.2-1.9,4.8-3.4,7.5-4.5   c1.9-0.7,4-1.3,6-1.1c2.7,0.3,5.3,1.8,8,1.7c1.3-0.1,2.6-0.5,3.9-0.6c3.2-0.1,6,1.9,9.2,2.2c8.1,0.7,17.3,8.1,16.9,16.6   c0,1-0.2,2.1,0.2,3.1c0.5,1.5,2.1,2.4,2.9,3.7c1.8,3.2-0.8,7.1-0.2,10.8c0.2,1.1,0.6,2.1,0.8,3.1   C540.8,203.7,540.6,205.9,540.4,208z"/>
</g>
<path class="st5" d="M460.1,209.1L460.1,209.1c-2.3,2.7-3.4,6.2-3.1,9.7l1,11.9c0.2,2.5,1.2,4.9,2.7,6.8c0.1,0.1,0.1,0.2,0.2,0.3  c2.7,3.3,7.8,3.1,10.4-0.2l0.9-1.1l-2.4-22.9L460.1,209.1z"/>
<path class="st5" d="M538.2,214.9L538.2,214.9c2.3,2.7,3.4,6.2,3.1,9.7l-1,11.9c-0.2,2.5-1.2,4.9-2.7,6.8c-0.1,0.1-0.1,0.2-0.2,0.3  c-2.7,3.3-7.8,3.1-10.4-0.2l-0.9-1.1l2.4-22.9L538.2,214.9z"/>
<path class="st5" d="M465,204.5v38.9c0,7.6,2.2,15,6.4,21.5l9.6,14.8c3.6,5.5,10,8.9,16.9,8.9l0,0c6.8,0,13.2-3.3,16.8-8.7  l10.4-15.5c3.1-4.6,5.2-9.7,6.1-15.1l2.6-14.2V198l-68.8-1.7V204.5z"/>
<path class="st6" d="M507.5,239.7l-3.9,20.2c-0.1,1.7-1.9,2.7-3.4,2.1l-4.8-2l-1.4,2.3l8,3.3c1.6,0.6,3.3-0.4,3.4-2.1L507.5,239.7  L507.5,239.7z"/>
<path class="st5" d="M470.2,440.2v-8.5c0-0.9-0.3-1.8-0.8-2.6l-6.4-9.2l-21.3-6.3l-12.6,6.3c-1.2,0.6-2.2,1.7-2.6,3l-5.3,15.3  l-8.9,8c0,0-4.8,3.3-6,10.3c-1,5.4,6.3,5.9,6.3,5.9l9.6,0.3h9.1v-3.4l8.7,0.4c0.8,0,1.6-0.2,2.3-0.6l0,0c2.5-1.6,3.4-5.5,0.9-7  l-9.3-6.2c-0.7-0.4-2.3-0.7-2-1.4l0,0c0.4-0.8,1.4-1.1,2.2-0.6l12.6,8.6c1.6,1.1,3.8,1.1,5.4-0.2l0,0c1.9-1.5,2.3-4.2,1-6.2  l-3.1-4.6l-11.9-6.2l0,0c0.8-1.2,2.3-1.6,3.6-1l8.6,5.3l4.2,5c1.7,2,4.7,2.2,6.6,0.4l0,0c1.7-1.5,3-4.1,1.7-6l-5.1-8l-14.2-7.4l0,0  c0.8-1.1,2.3-1.5,3.5-1l9.7,5.7l5.5,4.8l0.1,0.7C462.9,437.8,466.3,440.5,470.2,440.2L470.2,440.2z"/>
<path class="st3" d="M419.8,438.1c0,0-32.1,26.8,2.4,24.6l-18.9-0.1c0,0-8.7-9.4,19.7-29.9l-1.9,5.4H419.8z"/>
<g>
	<rect x="266.3" y="243.9" class="st7" width="57.5" height="105.6"/>
	<polygon class="st8" points="413.9,314.8 382.2,339.1 381.1,316.5 403.6,294.6  "/>
	<polygon class="st9" points="339,301 377.9,318.9 335.8,465.6 203.4,465.6 245,295.8 266.6,293.8 284.8,279.5  "/>
	<path class="st5" d="M285.2,275.4c0,0-1,13.8-4.3,17.4l-4.6,15v86.3l35.8,2.6l11.4-84.3c0,0,0-7.5,4.2-9.6s-17.2-27.3-17.2-27.3   h-25.3V275.4z"/>
	<path class="st3" d="M279.6,321.6l-3.3,22.8l-2.1,96.7l20.8,5.2L319,331l0,0c-12.2,7.5-28,4.8-37-6.4L279.6,321.6z"/>
	<polygon class="st4" points="266.6,293.8 255.2,329.3 268.9,340 255.2,347.2 262,435.6 280.6,435.9 280,283.3  "/>
	<polygon class="st4" points="336.6,302.7 348,332.8 330.7,338.4 344.3,352.4 299.4,446.3 280.6,444.3 330.4,296.7  "/>
	<g>
		<path class="st7" d="M346.2,224.5c-0.7-4.4-1.6-9.1-4.8-12.6c-1.8-2-4.2-3.4-6.5-4.8c-5-3-10.1-5.9-15.1-8.9    c-2.8-1.6-6.1-3.3-9.2-2.3c-1.5,0.5-2.7,1.6-4.3,1.9c-2.1,0.5-4.3-0.6-6.5-1c-4.9-0.8-9.6,1.9-13.7,4.5c-3.7,2.4-7.5,4.8-10.5,8    c-5.1,5.5-7.2,12.7-8.1,19.7c-0.9,7.1-1.2,25.8-1.2,25.8c11.7,5.9,26.3,0.2,39.1-3.4c12.8-3.6,24.2-10.3,35.3-17.1    c2.3-1.4,4.7-3,5.5-5.4C346.7,227.6,346.5,226,346.2,224.5z"/>
	</g>
	<path class="st6" d="M285.2,275.4c0,0-0.1,1-0.3,2.6h1.2l2.9,8c2,5.5,6.4,9.9,11.9,11.8l14.6,3.2c2.6,0.9,10.2,1.6,12.2,1.7   c0.6-1.1-1.1,0.6,0,0c4.2-2.1-17.2-27.3-17.2-27.3L285.2,275.4L285.2,275.4z"/>
	<path class="st5" d="M346.9,221.8c0,0,2,14.1,3.4,18.4c0.3,1,0.4,2,0.3,2.9l-0.5,4.9c0,0,2.8,8.1,3.3,12.7c0,0,1.3,7.7-2,16.1   c0,0-6.8,19.7-10.7,23.1c0,0-5.9,5.2-17.1,1.3l-17.4-6.1c-5.6-1.9-10-6.3-11.9-11.8l-2.9-8h-6.1c-1.4,0-2.7-0.6-3.6-1.6l-2.7-3.1   c-3-3.4-4.6-7.7-4.6-12.2v-3.8c0,0,2-7.8,9-3.9l5.7,6l1.3-0.2v-12.7c0,0,12.7-23.6,30.2-26.2c1.7-0.3,3-1.7,3-3.4v-1   C323.4,213.4,337.7,210.1,346.9,221.8z"/>
	<path class="st6" d="M343.9,262.5l-5.6-12.4l0,0l3,12.4c1.3,2.9-0.8,6.2-4,6.2h2.6C343.1,268.7,345.2,265.4,343.9,262.5z"/>
	<path class="st7" d="M302.2,275.4c-6.3-12.3-14.4-25.3-9.1-39.4c0.7-1.9-2.4-2.8-3.1-0.9c-2,5.2-2.2,10.3-1.4,15.3   c-0.5,0.2-0.9,0.7-0.9,1.4c-0.3,10.2,3.9,19.2,12,25.5C301.1,278.5,303.1,277.2,302.2,275.4z"/>
	<path class="st9" d="M260.4,301.5l6.2-7.7l-30.8,2.9c-12.5,1.2-23,9.8-26.6,21.8L171,446.8c-2.8,9.4,4.2,18.9,14.1,18.9h103.4   v-29.6l-71-1.3l12.7-54l13-63.7L260.4,301.5z"/>
	<path class="st5" d="M288.4,439.6h8.6c5.4,0,10.4-2.8,13.1-7.5l24.2-40.7l19.3-8l-2,5.7l-13.1,5.5l-3.2,5.9l5.9-3.9h7.8l-17.9,50   l-4,3.4c-3.9,3.4-8.7,5.6-13.9,6.4l-24.8,4V439.6z"/>
	<g>
		<polygon class="st6" points="345.4,391.8 351.6,389.2 353.6,383.5 347.5,386   "/>
		<path class="st6" d="M327,450.1l4-3.4l17.9-50h-5.2l-20,55.9C324.9,451.8,326,451,327,450.1z"/>
	</g>
	<polygon class="st9" points="324.2,465.6 357.5,372.6 385.8,374.8 369.2,465.6  "/>
	<path class="st5" d="M399.8,303l4.9-4.7c0.7-0.7,0.7-1.8,0.1-2.5l-2.3-2.4c-0.7-0.7-1.8-0.7-2.5-0.1l-4.9,4.7   c-0.7,0.7-0.7,1.8-0.1,2.5l2.3,2.4C397.9,303.7,399.1,303.7,399.8,303z"/>
	<path class="st5" d="M400.8,313.1l11.5-7.9c0.8-0.6,1-1.7,0.5-2.5l-1.9-2.8c-0.6-0.8-1.7-1-2.5-0.5l-11.5,7.9   c-0.8,0.6-1,1.7-0.5,2.5l1.9,2.8C398.8,313.4,400,313.6,400.8,313.1z"/>
	<path class="st5" d="M404.6,319.2l11.8-7.5c0.8-0.5,1.1-1.6,0.6-2.5l-1.8-2.8c-0.5-0.8-1.6-1.1-2.5-0.6l-11.8,7.5   c-0.8,0.5-1.1,1.6-0.6,2.5l1.8,2.8C402.7,319.5,403.8,319.8,404.6,319.2z"/>
	<path class="st5" d="M413.7,313.5l-30.2,21c5-4.4,2.3-10.8,2.3-10.8v-6.9l5.6-3.7c1.7-1.1,2.2-3.4,1.1-5.1s-3.3-2.2-5-1.2   l-11.3,6.8l-14.5,28.2v30.6l20.6,2l9.1-28.3c18-5.4,23.4-27.4,23.4-27.4L413.7,313.5z"/>
	<path class="st10" d="M197.5,389.7c12,0-4.1-14.7,8.5-15.1c5-0.2,12.6,0.5,10.2-3.9c-2.2-4-8.9-3.3-11.1-7.1   c-4.7-7.9,0.1-16.8,2.3-24.7c2.5-9.1,9.9-26.5,12.3-35.6c-4.8,3.8-8.5,9.1-10.4,15.3l-14.1,47.1l-0.8,2.5l-0.8,2.7l-22.7,76   c-0.7,2.4-0.8,4.8-0.3,7c6.2-11.1,10.9-26.3,14.2-38.4C187.1,406.9,193.3,389.7,197.5,389.7z"/>
	<g>
		<path class="st7" d="M282.5,279.8l-1.5-4.4l-8.9-8.4l-3.6-28.9c-3.9,5-1.6,11.3-3.1,17c-1.2,4.4-4.7,8.4-5.3,12.8    c-0.9,6.3,3.9,12.9,0.6,18.7c-3.3,5.7-13.7,9.1-13.9,15.3c-0.1,4.2,4.9,7.8,4.8,12.1c-0.1,3.5-3.8,6.9-2.6,10.4    c0.5,1.5,2,2.8,2,4.3s-1.4,3-0.9,4.5c0.7,2.4,6,2.7,8.3,0.9c2.3-1.8,2-4.7,0.8-7s-3.3-4.3-4.3-6.7c-0.4-0.9-0.6-1.9-0.1-2.7    c1.3-2.1,5.7-1.8,8.2-3.2c4.3-2.3,1.3-7-1.9-10.1c2.3-2,6.4-2.4,10-3s7.6-2.1,7.9-4.7c0.3-2.4-3-4.6-2.5-7c0.4-2,3.1-3.2,5.1-4.7    C283.7,283.6,284.8,280.9,282.5,279.8z"/>
	</g>
	<path class="st7" d="M418.4,341.1l-3.8,4l-29.6-51c-1-1.8,0.2-3.9,2.3-3.9l0,0c0.9,0,1.8,0.5,2.3,1.3L418.4,341.1z"/>
	<path class="st11" d="M417.1,341.1l-28.8-49.6c-0.4-0.6-0.9-1-1.6-1.2c-0.3,0.1-0.5,0.2-0.7,0.3c0.4,0.2,0.8,0.5,1,0.9l28.8,49.6   L417.1,341.1L417.1,341.1z"/>
	<circle class="st12" cx="416.1" cy="342.8" r="2.8"/>
	<path class="st13" d="M250.5,435.3c-5.7-0.3-13.3-0.7-20.9-1.1c-7.6-0.3-15.3-0.5-21-0.3c-5.7,0.1-9.6,0.4-9.6,0.4l0.4,3.4   c-3.4,1-5.8,1.8-5.8,1.8s6.1-1.3,12.7-1.8c-2.4,1.9-4.6,3.8-4.6,3.8s2.8-1.5,5.8-2.8c1.2-0.5,2.4-1,3.4-1.4c5.1-0.4,9.6-1,10.8-1.1   c2.6-0.1,5.3-0.2,8-0.2c7.6-0.1,15.2-0.2,20.9-0.2c5.7-0.1,9.5-0.2,9.5-0.2S256.2,435.5,250.5,435.3z"/>
</g>
<g id="XMLID_193_">
	<g id="XMLID_194_">
		<path id="XMLID_195_" class="st14" d="M690.2,465.7H488.8c-6.3,0-12-3.6-14.7-9.3l-5-10.6h240.7l-5,10.6    C702.2,462.1,696.5,465.7,690.2,465.7z"/>
	</g>
</g>
<g id="XMLID_174_">
	<g id="XMLID_182_">
		<path id="XMLID_191_" class="st2" d="M696.8,455.1H482.2c-3.3,0-6-2.7-6-6v-134c0-3.3,2.7-6,6-6h214.6c3.3,0,6,2.7,6,6v134    C702.8,452.5,700.1,455.1,696.8,455.1z"/>
	</g>
</g>
<g id="XMLID_171_">
	<g id="XMLID_172_">
		<circle id="XMLID_173_" class="st3" cx="589.5" cy="386.9" r="16.1"/>
	</g>
</g>
<path class="st7" d="M537.2,185c-1.3-1.9-3.4-3.2-5.4-4.4c-20.5-11.5-48.7-6.9-64.6,10.4c-2.2,2.4-4.2,5-5.5,8  c-2.9,7-1.6,14.9,0.1,22.3l-1,0.3c2.1-0.2,5.4-0.1,7.1-1.3c1.4-0.9,2.4-2.6,2.4-4.3c0-0.5,0-1.1,0.3-1.4c0.4-0.5,1.2-0.3,1.8-0.2  c1.8,0.2,3.6-0.6,4.7-2s1.4-3.4,0.8-5.1c1.1,0.5-10,13-0.8,5.1c2.3-2,4.9-12.2,7.1-14.1c3.4-3.1,5.9,2.7,8.6,4.4  c2.6,1.6,6.2,1.3,8.5-0.7c-1.3,2.5,0.6,5.7,3.2,6.6c2.6,0.9,17.1,6.7,19.4,5.2c0.2,0.5-11.1-5.8-10.9-5.3  c10.3,7.2,25.7,11.3,28.2-5.7C541.9,198.5,539.7,188.6,537.2,185z"/>
</svg>