<?xml version="1.0" encoding="iso-8859-1"?>
<!-- Generator: Adobe Illustrator 18.1.1, SVG Export Plug-In . SVG Version: 6.00 Build 0)  -->
<svg version="1.1" id="Capa_1" xmlns="http://www.w3.org/2000/svg" xmlns:xlink="http://www.w3.org/1999/xlink" x="0px" y="0px"
	 viewBox="0 0 18.513 18.513" style="enable-background:new 0 0 18.513 18.513;" xml:space="preserve">
<g>
	<path d="M15.127,16.63c0.379-0.241,0.662-0.518,0.844-0.811c0.525-0.854,0.715-3.596,0.623-4.543
		c-0.098-0.947-0.145-2.956-0.209-5.692c-0.061-2.737-1.633-4.272-2.67-4.908C12.676,0.045,8.69-0.227,6.727,0.222
		c-1.961,0.446-3.47,2.35-3.47,2.35C2.449,3.869,2.289,6.787,2.271,7.666c-0.015,0.877-0.159,5.995,0.015,7.124
		c0.117,0.775,0.529,1.441,1.027,1.853c-1.26,0.196-2.027,0.46-2.027,0.747c0,0.62,3.567,1.123,7.972,1.123
		c4.401,0,7.969-0.503,7.969-1.123C17.225,17.097,16.432,16.829,15.127,16.63z M7.174,15.827c0,0,0.006-0.906,1.103-0.959
		c1.096-0.051,2.934,0.121,3.303,0.717c0.373,0.597-0.602,1.166-1.479,1.213C9.226,16.847,7.534,17.106,7.174,15.827z M13.053,8.317
		c0.387,0.129,2.008,0.365,2.234,0.604c0.225,0.242,0.529,0.427,0.15,0.654c-0.377,0.23-1.266,0.934-1.008,1.422
		s0.607,1.328,0.482,1.822c-0.125,0.498-0.926,1.42-1.41,1.76c-0.486,0.34-0.863,0.65-0.951,0.379
		c-0.09-0.272,0.328-1.186,0.133-1.346c-0.195-0.158-1.916,0.074-2.383,0.027c-0.467-0.043-0.821,0.049-1.668,0.067
		c-0.851,0.021-1.177,0.082-1.562,0.037c-0.384-0.047-0.494-0.045-0.225-0.27c0.27-0.226,1.094-1.177,1.783-1.058
		c0.688,0.121,1.017,0.168,1.343,0.08c0.326-0.092,0.736-0.184,1.234-0.029c0.496,0.152,1.361,0.955,1.582,0.867
		c0.215-0.088,0.395-0.639,0.078-1.315c-0.318-0.678-0.572-1.084-0.609-1.438c-0.037-0.356-0.09-1.479-0.457-1.963
		C11.801,8.621,12.666,8.19,13.053,8.317z M12.252,1.877c0,0.062,0,0.123-0.002,0.189c-1.008-0.046-2.16-0.068-3.435-0.05
		C8.341,2.024,7.907,2.041,7.506,2.069c0.006-0.303,0.017-0.553,0.032-0.674c0.041-0.322,0.409-0.346,0.451-0.346
		c0,0,3.639,0.082,3.911,0.091C12.045,1.338,12.16,1.592,12.252,1.877z M12.242,2.396c-0.021,0.83-0.068,1.869-0.16,2.135
		c-0.078,0.213-0.219,0.208-0.896,0.083l-0.68-0.116C9.667,4.377,9.188,4.476,8.635,4.51L7.842,4.576
		C7.68,4.58,7.643,4.455,7.573,4.385C7.495,4.306,7.496,4.196,7.496,4.194c0-0.021-0.126-1.053-0.114-1.861
		C7.783,2.309,8.518,2.21,8.998,2.202C10.268,2.181,11.24,2.351,12.242,2.396z M6.711,0.606c1.334-0.308,3.387-0.385,4.743,0.16
		c0.023,0.012,0.049,0.021,0.072,0.034L7.989,0.721C7.743,0.728,7.276,0.867,7.213,1.353C7.196,1.489,7.185,1.767,7.176,2.092
		C5.581,2.224,4.603,2.49,4.027,2.722C4.603,1.864,5.6,0.858,6.711,0.606z M3.724,3.233c0.38-0.219,1.348-0.635,3.446-0.812
		C7.16,3.213,7.166,4.127,7.167,4.188c0,0.015-0.007,0.241,0.168,0.422C7.47,4.75,7.671,4.821,7.93,4.813l0.514-0.027
		c0.537-0.033,1.21-0.076,2.017,0.037l0.879,0.051c0.652,0.121,0.842,0.006,1.023-0.496c0.068-0.194,0.141-0.422,0.17-0.953
		C12.625,4.459,12.574,5.4,12.574,5.4s-0.938-0.172-3.953-0.318c-3.017-0.146-5.48,1.086-5.48,1.086S3.256,4.151,3.724,3.233z
		 M2.903,10.259C3.034,8.885,3.04,7.622,3.04,7.622S4.51,7.286,5.065,7.63c0.557,0.343,1.419,0.896,2.343,0.576
		c0.924-0.324,1.29-1.045,1.29-1.045s1.144-0.248,1.376,0.213c0,0,0.266,0.871,0.707,1.025c0.441,0.151,0.943,0.522,1.061,0.879
		c0.119,0.354,0.207,0.543-0.123,0.549C11.391,9.837,11,9.516,10.698,9.496C10.395,9.478,9.445,9.8,9.058,9.672
		c-0.386-0.129-0.802-0.28-1.1-0.166c-0.299,0.117-0.344,0.502-0.644,0.563c-0.301,0.062-0.287-0.596-0.287-0.596
		s-0.617,1.354,0.332,1.363c0.441,0.002,0.94-0.733,1.385-0.526c0.443,0.209,0.991,0.223,1.373,0.133
		c0.381-0.09,0.826,0.09,1.102,0.248c0.279,0.158,0.984,1.072,0.984,1.072s-1.145-0.933-1.77-0.699
		c-0.623,0.233-0.728,0.512-1.225,0.332c-0.498-0.183-0.938-0.334-1.452,0.032c-0.511,0.369-1.806,1.248-1.742,1.632
		c0.064,0.381,0.185,0.844,0.488,0.918c0.303,0.075,0.669,0.506,0.669,0.506s-0.418,0.858-1.429,1.02
		c-1.009,0.16-1.886-0.668-2.286-1.426C3.054,13.319,2.77,11.63,2.903,10.259z"/>
</g>
<g>
</g>
<g>
</g>
<g>
</g>
<g>
</g>
<g>
</g>
<g>
</g>
<g>
</g>
<g>
</g>
<g>
</g>
<g>
</g>
<g>
</g>
<g>
</g>
<g>
</g>
<g>
</g>
<g>
</g>
</svg>
