<?xml version="1.0" encoding="utf-8"?>
<!-- Generator: Adobe Illustrator 19.2.1, SVG Export Plug-In . SVG Version: 6.00 Build 0)  -->
<svg version="1.1" id="Layer_1" xmlns="http://www.w3.org/2000/svg" xmlns:xlink="http://www.w3.org/1999/xlink" x="0px" y="0px"
	 viewBox="0 0 792 612" enable-background="new 0 0 792 612" xml:space="preserve">
<path fill="#8CB344" d="M319.104,151.798c25.582-19.038,72.642-24.631,110.131,5.611c6.534-6.188,13.179-12.392,19.664-18.756
	c0.668-0.656,0.701-2.326,0.508-3.436c-2.218-12.73,5.527-24.322,18.559-27.629c11.161-2.832,23.308,4.537,27.02,16.392
	c5.22,16.666-9.003,32.246-27.079,29.85c-1.757-0.233-4.209,0.375-5.474,1.535c-9.688,8.88-19.159,17.995-28.524,26.873
	c-5.028-4.756-9.665-9.92-15.058-14.11c-25.952-20.161-54.078-23.044-83.814-9.385c-3.959,1.818-6.406,2.009-9.231-1.532
	C324.099,155.074,321.48,153.665,319.104,151.798z"/>
<path fill="#8CB344" d="M408.755,296.261c3.576,3.375,6.928,6.539,10.303,9.725c-20.425,16.483-69.28,25.841-109.784-6.772
	c-5.078,5.512-10.355,11.065-15.376,16.839c-0.964,1.108-1.487,3.176-1.258,4.653c1.833,11.839-6.439,24.555-17.764,26.98
	c-12.747,2.729-25.39-4.89-28.51-17.182c-3.093-12.188,4.412-25.158,16.754-28.22c3.381-0.839,7.141-0.021,10.677-0.412
	c2.09-0.231,4.583-0.803,6.036-2.148c8.914-8.255,17.582-16.776,26.646-25.51c11.853,16.225,27.455,26.864,47.021,30.765
	C372.973,308.863,391.722,306.22,408.755,296.261z"/>
<path fill="#8CB344" d="M299.963,167.403c-3.485-3.742-6.565-7.249-9.891-10.505c-1.059-1.036-2.722-1.848-4.191-2.006
	c-8.407-0.903-14.715-7.127-14.66-14.743c0.055-7.527,6.411-13.686,13.921-14.161c8.874-0.562,14.764,5.84,15.682,14.479
	c0.203,1.905,1.184,4.033,2.47,5.463c6.004,6.681,12.242,13.153,18.876,20.21c-1.517,1.438-2.991,2.899-4.533,4.286
	c-25.461,22.914-33.188,59.779-18.611,90.813c1.996,4.251,1.397,6.469-1.92,9.153c-2.142,1.733-3.717,4.165-5.675,6.434
	C273.564,250.571,268.705,204.843,299.963,167.403z"/>
<path fill="#8CB344" d="M417.414,290.829c31.225-25.913,38.969-65.629,20.68-100.316c3.451-3.104,6.992-6.289,10.817-9.729
	c7.218,11.397,11.445,23.494,12.759,36.381c2.478,24.308-2.851,46.736-17.753,66.503c-0.796,1.057-2.073,1.951-2.39,3.119
	c-0.43,1.586-0.883,4.058-0.047,4.944c4.415,4.682,7.917,10.221,15.77,10.819c6.407,0.489,11.158,8.909,10.112,15.09
	c-1.34,7.929-7.544,13.365-14.988,13.136c-7.162-0.221-13.267-6.533-14.324-14.114c-0.354-2.538-1.607-5.31-3.291-7.237
	C429.189,303.051,423.235,297.013,417.414,290.829z"/>
<path fill="#032536" d="M370.956,159.385c-39.549-0.368-70.544,31.303-69.855,68.785c-1.042,35.773,28.212,69.42,68.89,69.282
	c38.656-0.132,66.601-29.98,68.707-63.906C441.413,189.769,407.803,159.727,370.956,159.385z"/>
<text transform="matrix(1 0 0 1 326.1403 233.0017)" fill="#FFFFFF" font-family="'BaskOldFace'" font-size="72px">B</text>
<text transform="matrix(1 0 0 1 375.1875 274.2158)" fill="#FFFFFF" font-family="'BaskOldFace'" font-size="72px">P</text>
</svg>
