<?xml version="1.0"?>
<svg xmlns="http://www.w3.org/2000/svg" height="512px" viewBox="0 0 480 480" width="512px" class=""><g><path d="m96 32h16v16h-16zm0 0" data-original="#000000" class="active-path" data-old_color="#95ca3e" fill="#95ca3e"/><path d="m32 64h16v16h-16zm0 0" data-original="#000000" class="active-path" data-old_color="#95ca3e" fill="#95ca3e"/><path d="m128 32h16v16h-16zm0 0" data-original="#000000" class="active-path" data-old_color="#95ca3e" fill="#95ca3e"/><path d="m160 32h16v16h-16zm0 0" data-original="#000000" class="active-path" data-old_color="#95ca3e" fill="#95ca3e"/><path d="m432 64h16v16h-16zm0 0" data-original="#000000" class="active-path" data-old_color="#95ca3e" fill="#95ca3e"/><path d="m456 32h-40v-8c0-13.253906-10.746094-24-24-24h-304c-13.253906 0-24 10.746094-24 24v8h-40c-13.253906 0-24 10.746094-24 24v344c0 13.253906 10.746094 24 24 24h40v16c0 13.253906 10.746094 24 24 24h216v-16h-216c-4.417969 0-8-3.582031-8-8v-360h320v224h16v-192h48v208h16v-264c0-13.253906-10.746094-24-24-24zm-432 16h40v48h-48v-40c0-4.417969 3.582031-8 8-8zm0 360c-4.417969 0-8-3.582031-8-8v-288h48v296zm56-344v-40c0-4.417969 3.582031-8 8-8h304c4.417969 0 8 3.582031 8 8v40zm336 32v-48h40c4.417969 0 8 3.582031 8 8v40zm0 0" data-original="#000000" class="active-path" data-old_color="#95ca3e" fill="#95ca3e"/><path d="m446.398438 385.769531c6.050781 26.515625-5.320313 53.957031-28.351563 68.425781-23.03125 14.464844-52.6875 12.796876-73.949219-4.160156-21.265625-16.957031-29.488281-45.503906-20.503906-71.171875 8.984375-25.671875 33.210938-42.863281 60.40625-42.863281 14.648438-.0625 28.867188 4.960938 40.222656 14.214844l10.066406-12.429688c-30.300781-24.410156-73.789062-23.382812-102.902343 2.425782-29.117188 25.808593-35.351563 68.863281-14.753907 101.867187 20.597657 33.007813 62.007813 46.328125 97.988282 31.519531 35.976562-14.808594 56.011718-53.421875 47.402344-91.367187zm0 0" data-original="#000000" class="active-path" data-old_color="#95ca3e" fill="#95ca3e"/><path d="m296 344h-184c-4.417969 0-8 3.582031-8 8v64c0 4.417969 3.582031 8 8 8h176v-16h-168v-48h176zm0 0" data-original="#000000" class="active-path" data-old_color="#95ca3e" fill="#95ca3e"/><path d="m136 376h16v16h-16zm0 0" data-original="#000000" class="active-path" data-old_color="#95ca3e" fill="#95ca3e"/><path d="m168 376h16v16h-16zm0 0" data-original="#000000" class="active-path" data-old_color="#95ca3e" fill="#95ca3e"/><path d="m200 376h16v16h-16zm0 0" data-original="#000000" class="active-path" data-old_color="#95ca3e" fill="#95ca3e"/><path d="m232 376h16v16h-16zm0 0" data-original="#000000" class="active-path" data-old_color="#95ca3e" fill="#95ca3e"/><path d="m264 376h16v16h-16zm0 0" data-original="#000000" class="active-path" data-old_color="#95ca3e" fill="#95ca3e"/><path d="m208 192h-8v16h16v8h16v-8h16v8h16v-8.40625c11.644531-1.621094 21.019531-10.386719 23.417969-21.894531 2.398437-11.511719-2.691407-23.289063-12.722657-29.425781 4.871094-6.703126 6.492188-15.230469 4.421876-23.253907-2.066407-8.023437-7.613282-14.703125-15.117188-18.210937v-10.808594h-16v8h-16v-8h-16v8h-16v16h8zm16-64h28c6.628906 0 12 5.371094 12 12s-5.371094 12-12 12h-28zm36 64h-36v-24h36c6.628906 0 12 5.371094 12 12s-5.371094 12-12 12zm0 0" data-original="#000000" class="active-path" data-old_color="#95ca3e" fill="#95ca3e"/><path d="m296 152h16v16h-16zm0 0" data-original="#000000" class="active-path" data-old_color="#95ca3e" fill="#95ca3e"/><path d="m168 152h16v16h-16zm0 0" data-original="#000000" class="active-path" data-old_color="#95ca3e" fill="#95ca3e"/><path d="m120 240h16v16h-16zm0 0" data-original="#000000" class="active-path" data-old_color="#95ca3e" fill="#95ca3e"/><path d="m152 240h224v16h-224zm0 0" data-original="#000000" class="active-path" data-old_color="#95ca3e" fill="#95ca3e"/><path d="m104 272h272v16h-272zm0 0" data-original="#000000" class="active-path" data-old_color="#95ca3e" fill="#95ca3e"/><path d="m104 304h216v16h-216zm0 0" data-original="#000000" class="active-path" data-old_color="#95ca3e" fill="#95ca3e"/><path d="m376 420.6875-26.34375-26.34375-11.3125 11.3125 32 32c3.125 3.121094 8.1875 3.121094 11.3125 0l96-96-11.3125-11.3125zm0 0" data-original="#000000" class="active-path" data-old_color="#95ca3e" fill="#95ca3e"/></g> </svg>
